<?xml version="1.0" encoding="utf-8"?>
<!-- Generator: Adobe Illustrator 24.2.0, SVG Export Plug-In . SVG Version: 6.00 Build 0)  -->
<svg version="1.1" id="Layer_1" xmlns="http://www.w3.org/2000/svg" xmlns:xlink="http://www.w3.org/1999/xlink" x="0px" y="0px"
	 viewBox="0 0 500 500" style="enable-background:new 0 0 500 500;" xml:space="preserve">
<style type="text/css">
	.st0{fill-rule:evenodd;clip-rule:evenodd;fill:#3C5B9A;}
	.st1{fill-rule:evenodd;clip-rule:evenodd;fill:#FEFEFE;}
</style>
<g>
	
		<ellipse transform="matrix(0.7071 -0.7071 0.7071 0.7071 -103.5538 249.9998)" class="st0" cx="250" cy="250" rx="189.19" ry="189.19"/>
	<path class="st1" d="M220.35,307.1c0-17.71-0.07-35.41,0.06-53.11c0.02-2.98-0.82-3.92-3.8-3.8c-5.52,0.22-11.05-0.02-16.57,0.1
		c-2.24,0.06-3.06-0.56-3.04-2.93c0.11-11.05,0.1-22.1,0.01-33.15c-0.02-2.13,0.62-2.82,2.77-2.78c5.65,0.13,11.31-0.16,16.95,0.12
		c3.27,0.16,3.94-1,3.88-4.03c-0.2-8.41-0.2-16.83-0.01-25.24c0.22-10.27,2.98-19.86,9.1-28.21c7.74-10.57,18.75-15.41,31.44-15.97
		c13.04-0.58,26.11-0.26,39.17-0.4c1.82-0.02,2.36,0.63,2.36,2.4c-0.06,11.17-0.07,22.35,0.01,33.52c0.02,1.99-0.63,2.6-2.58,2.56
		c-6.28-0.1-12.56-0.05-18.83-0.03c-8.36,0.03-13.36,4.33-13.88,12.6c-0.42,6.63-0.11,13.3-0.27,19.96
		c-0.06,2.37,1.35,2.21,2.92,2.21c9.54-0.01,19.09,0.09,28.63-0.07c2.8-0.05,3.72,0.6,3.4,3.54c-1.2,11.1-2.23,22.22-3.18,33.35
		c-0.22,2.51-1.36,2.99-3.62,2.95c-7.53-0.12-15.06-0.08-22.6-0.03c-5.41,0.03-4.88-0.79-4.88,4.73
		c-0.03,34.65-0.07,69.31,0.08,103.96c0.02,3.66-0.92,4.57-4.54,4.5c-12.93-0.24-25.87-0.25-38.8,0.01
		c-3.64,0.07-4.24-1.16-4.21-4.41C220.42,342,220.35,324.55,220.35,307.1z"/>
</g>
</svg>
