<?xml version="1.0" encoding="utf-8"?>
<!-- Generator: Adobe Illustrator 24.2.0, SVG Export Plug-In . SVG Version: 6.00 Build 0)  -->
<svg version="1.1"
	 id="Layer_1" inkscape:version="0.92.4 (5da689c313, 2019-01-14)" sodipodi:docname="zomato-logo.svg" xmlns:cc="http://creativecommons.org/ns#" xmlns:dc="http://purl.org/dc/elements/1.1/" xmlns:inkscape="http://www.inkscape.org/namespaces/inkscape" xmlns:rdf="http://www.w3.org/1999/02/22-rdf-syntax-ns#" xmlns:sodipodi="http://sodipodi.sourceforge.net/DTD/sodipodi-0.dtd" xmlns:svg="http://www.w3.org/2000/svg"
	 xmlns="http://www.w3.org/2000/svg" xmlns:xlink="http://www.w3.org/1999/xlink" x="0px" y="0px" viewBox="0 0 673 255.3"
	 style="enable-background:new 0 0 673 255.3;" xml:space="preserve">
<style type="text/css">
	.st0{clip-path:url(#SVGID_2_);}
	.st1{fill:#E23744;}
	.st2{fill:#FFFFFF;}
</style>
<sodipodi:namedview  bordercolor="#666666" borderopacity="1" gridtolerance="10" guidetolerance="10" id="namedview11" inkscape:current-layer="Layer_1" inkscape:cx="1181.4873" inkscape:cy="193.68692" inkscape:pageopacity="0" inkscape:pageshadow="2" inkscape:window-height="837" inkscape:window-maximized="1" inkscape:window-width="1600" inkscape:window-x="-8" inkscape:window-y="-8" inkscape:zoom="0.3337544" objecttolerance="10" pagecolor="#ffffff" showgrid="false">
	</sodipodi:namedview>
<g>
	<defs>
		<rect id="SVGID_1_" width="673" height="255.3"/>
	</defs>
	<clipPath id="SVGID_2_">
		<use xlink:href="#SVGID_1_"  style="overflow:visible;"/>
	</clipPath>
	
		<g id="g8" inkscape:export-filename="G:\Users\suitedoalex\sites\zomato-logo-5.png" inkscape:export-xdpi="67.199997" inkscape:export-ydpi="67.199997" class="st0">
		<path id="Rectangle-Copy-10" inkscape:connector-curvature="0" class="st1" d="M16.6-220.6h639.8c9.2,0,16.6,7.4,16.6,16.6v639.8
			c0,9.2-7.4,16.6-16.6,16.6H16.6C7.4,452.4,0,445,0,435.9V-204C0-213.2,7.4-220.6,16.6-220.6z"/>
		<g id="Group" transform="translate(31,221)">
			<path id="zomato-copy-10" inkscape:connector-curvature="0" class="st2" d="M100.4-138.1l-0.5,17.1L55.3-72.7
				c18.6,0,30.4-0.2,37.2-0.6c-2,9.2-3.6,16.7-5.2,28c-8.9-0.7-22.9-0.9-36.8-0.9c-15.6,0-29.1,0.2-40.1,0.9l0.4-17.3l44.5-48.2
				c-19.5,0-26.6,0.2-34.7,0.4c1.8-8.6,3-18.2,4.3-27.8c14.1,0.6,19.7,0.7,38.1,0.7C80-137.4,89.7-137.6,100.4-138.1z M132-84.6
				c0,11.4,3.8,17.3,10.2,17.3c8.6,0,15.4-13.9,15.4-30.8c0-11.6-3.8-17.3-10-17.3C139-115.4,132-101.7,132-84.6L132-84.6z
				 M190.5-99.5c0,31.1-22,57-51.1,57c-26.1,0-39.5-17.8-39.5-41.1c0-31,22.2-56.8,51.1-56.8C177.5-140.4,190.5-122.6,190.5-99.5z
				 M540.9-84.6c0,11.4,3.8,17.3,10.2,17.3c8.6,0,15.4-13.9,15.4-30.8c0-11.6-3.8-17.3-10-17.3C547.9-115.4,540.9-101.7,540.9-84.6z
				 M600.6-100.1c0,31.6-22.3,57.8-51.8,57.8c-26.5,0-40-18.1-40-41.6c0-31.4,22.5-57.6,51.8-57.6
				C587.4-141.6,600.6-123.5,600.6-100.1z M340.9-110.2c2.3-16,1.1-30.4-16.6-30.4c-12.9,0-26.8,10.9-36.7,29.1
				c2.1-15,0.9-29.1-16.6-29.1c-13.2,0-27.5,11.4-37.4,30.4c2.5-12.4,2-26.5,1.3-29.5c-10.2,1.7-19.1,2.6-31.7,3
				c0.4,8.6-0.2,19.9-1.8,30.6l-4.1,28.1c-1.6,11.1-3.4,23.8-5.2,31.9h33.3c0.2-4.9,1.4-12.6,2.3-19.3l2.9-19.3
				c2.3-12.6,12.3-27.4,20-27.4c4.5,0,4.3,4.3,3,12.4l-3.2,21.8c-1.6,11.1-3.4,23.8-5.2,31.9h33.6c0.2-4.9,1.3-12.6,2.1-19.3
				l2.9-19.3c2.3-12.6,12.3-27.4,20-27.4c4.5,0,4.3,4.1,3.6,9.8l-8,56.3h30.7L340.9-110.2z M501.5-72.5L498-50.3
				c-5.5,3-15.9,7.3-27.9,7.3c-20.4,0-24.5-10.9-21.3-34l5.2-37.1h-10l2.8-24l11-0.5l4.1-17.5l30.9-11.6l-3.9,29.1h21.3
				c-0.7,3-3.2,19.5-3.9,24.6h-20.7l-4.7,34.3c-1.3,8.8-0.5,12,5.5,12C490.8-67.8,497.4-70.4,501.5-72.5L501.5-72.5z"/>
			<path id="a-copy-7" inkscape:connector-curvature="0" class="st2" d="M384.2-62c11.3-1.4,19-12.2,20.9-23.1l0.3-2.9
				c-4.8-1.1-11.8-1.9-18.6-1.1c-6.5,0.8-11.8,3.5-14.7,7.4c-2.2,2.8-3.3,6.1-2.8,10.1C370-65.6,376.6-61,384.2-62L384.2-62z
				 M374.6-44.8c-15.9,2-26.3-4.4-29.5-18.7c-2-9,0.8-19.3,5.6-25.4c6.4-8,16.9-13.2,29.6-14.7c10.3-1.3,18.9-0.6,27,0.9l0.3-1.4
				c0.2-2.2,0.5-4.4,0.1-7.1c-0.8-6.8-6.2-10.8-19.4-9.2c-8.9,1.1-17.4,4.3-24,8l-6.4-19.4c8.9-5.1,20.2-9,33.1-10.6
				c24.7-3,42,4.8,44.2,22.9c0.6,4.8,0.7,9.9,0.1,14.5c-3.2,22.3-5.2,39.2-6.1,50.4c-0.1,1.7-0.1,4.7,0,9l-30.6,0
				c0.6-1.8,1.2-4.1,1.7-7.1c0.3-2,0.6-4.5,0.7-7.5C394.6-51.4,385.7-46.2,374.6-44.8L374.6-44.8z"/>
		</g>
	</g>
</g>
</svg>
